<svg width="20" height="20" viewBox="0 0 20 20" fill="none" xmlns="http://www.w3.org/2000/svg">
<g id="Office/agreement">
<g id="Vector">
<path fill-rule="evenodd" clip-rule="evenodd" d="M4.16665 2.29169C4.05159 2.29169 3.95831 2.38496 3.95831 2.50002V17.5C3.95831 17.6151 4.05159 17.7084 4.16665 17.7084H15.8333C15.9484 17.7084 16.0416 17.6151 16.0416 17.5V2.50002C16.0416 2.38496 15.9484 2.29169 15.8333 2.29169H4.16665ZM2.70831 2.50002C2.70831 1.69461 3.36123 1.04169 4.16665 1.04169H15.8333C16.6387 1.04169 17.2916 1.69461 17.2916 2.50002V17.5C17.2916 18.3054 16.6387 18.9584 15.8333 18.9584H4.16665C3.36123 18.9584 2.70831 18.3054 2.70831 17.5V2.50002Z" fill="#757D8A"/>
<path fill-rule="evenodd" clip-rule="evenodd" d="M6.04165 1.66669C6.04165 1.32151 6.32147 1.04169 6.66665 1.04169H10.4166C10.7618 1.04169 11.0416 1.32151 11.0416 1.66669V8.33335C11.0416 8.57947 10.8972 8.80268 10.6727 8.9035C10.4482 9.00433 10.1854 8.964 10.0014 8.80049L8.54165 7.50291L7.08187 8.80049C6.89792 8.964 6.63513 9.00433 6.41061 8.9035C6.18609 8.80268 6.04165 8.57947 6.04165 8.33335V1.66669ZM7.29165 2.29169V6.94158L8.12642 6.19956C8.36322 5.98906 8.72007 5.98906 8.95687 6.19956L9.79165 6.94158V2.29169H7.29165Z" fill="#757D8A"/>
<path fill-rule="evenodd" clip-rule="evenodd" d="M6.04165 11.6667C6.04165 11.3215 6.32147 11.0417 6.66665 11.0417H10.8333C11.1785 11.0417 11.4583 11.3215 11.4583 11.6667C11.4583 12.0119 11.1785 12.2917 10.8333 12.2917H6.66665C6.32147 12.2917 6.04165 12.0119 6.04165 11.6667Z" fill="#757D8A"/>
<path fill-rule="evenodd" clip-rule="evenodd" d="M6.04165 14.1667C6.04165 13.8215 6.32147 13.5417 6.66665 13.5417H13.3333C13.6785 13.5417 13.9583 13.8215 13.9583 14.1667C13.9583 14.5119 13.6785 14.7917 13.3333 14.7917H6.66665C6.32147 14.7917 6.04165 14.5119 6.04165 14.1667Z" fill="#757D8A"/>
</g>
</g>
</svg>
