<svg width="20" height="20" viewBox="0 0 20 20" fill="none" xmlns="http://www.w3.org/2000/svg">
<g id="Icon/Create">
<g id="Vector">
<path fill-rule="evenodd" clip-rule="evenodd" d="M1.04169 10C1.04169 5.05247 5.05247 1.04169 10 1.04169C14.9476 1.04169 18.9584 5.05247 18.9584 10C18.9584 14.9476 14.9476 18.9584 10 18.9584C5.05247 18.9584 1.04169 14.9476 1.04169 10ZM10 2.29169C5.74282 2.29169 2.29169 5.74282 2.29169 10C2.29169 14.2572 5.74282 17.7084 10 17.7084C14.2572 17.7084 17.7084 14.2572 17.7084 10C17.7084 5.74282 14.2572 2.29169 10 2.29169Z" fill="#757D8A"/>
<path fill-rule="evenodd" clip-rule="evenodd" d="M10 6.04169C10.3452 6.04169 10.625 6.32151 10.625 6.66669V13.3334C10.625 13.6785 10.3452 13.9584 10 13.9584C9.65484 13.9584 9.37502 13.6785 9.37502 13.3334V6.66669C9.37502 6.32151 9.65484 6.04169 10 6.04169Z" fill="#757D8A"/>
<path fill-rule="evenodd" clip-rule="evenodd" d="M6.04169 10C6.04169 9.65484 6.32151 9.37502 6.66669 9.37502H13.3334C13.6785 9.37502 13.9584 9.65484 13.9584 10C13.9584 10.3452 13.6785 10.625 13.3334 10.625H6.66669C6.32151 10.625 6.04169 10.3452 6.04169 10Z" fill="#757D8A"/>
</g>
</g>
</svg>
