<svg width="16" height="16" viewBox="0 0 16 16" fill="none" xmlns="http://www.w3.org/2000/svg">
<g id="Icon/Grid">
<g id="Vector">
<path fill-rule="evenodd" clip-rule="evenodd" d="M1.5 2.9C1.5 2.1268 2.1268 1.5 2.9 1.5H13.1C13.8732 1.5 14.5 2.1268 14.5 2.9V13.1C14.5 13.8732 13.8732 14.5 13.1 14.5H2.9C2.1268 14.5 1.5 13.8732 1.5 13.1V2.9ZM2.9 2.5C2.67909 2.5 2.5 2.67909 2.5 2.9V13.1C2.5 13.3209 2.67908 13.5 2.9 13.5H13.1C13.3209 13.5 13.5 13.3209 13.5 13.1V2.9C13.5 2.67908 13.3209 2.5 13.1 2.5H2.9Z" fill="#757D8A"/>
<path fill-rule="evenodd" clip-rule="evenodd" d="M8 1.5C8.27614 1.5 8.5 1.72386 8.5 2V14C8.5 14.2761 8.27614 14.5 8 14.5C7.72386 14.5 7.5 14.2761 7.5 14V2C7.5 1.72386 7.72386 1.5 8 1.5Z" fill="#757D8A"/>
<path fill-rule="evenodd" clip-rule="evenodd" d="M1.5 8C1.5 7.72386 1.72386 7.5 2 7.5H14C14.2761 7.5 14.5 7.72386 14.5 8C14.5 8.27614 14.2761 8.5 14 8.5H2C1.72386 8.5 1.5 8.27614 1.5 8Z" fill="#757D8A"/>
</g>
</g>
</svg>
