<svg width="20" height="20" viewBox="0 0 20 20" fill="none" xmlns="http://www.w3.org/2000/svg">
<g id="Edit/list-success">
<g id="Vector">
<path fill-rule="evenodd" clip-rule="evenodd" d="M7.70835 4.16669C7.70835 3.82151 7.98818 3.54169 8.33335 3.54169H18.3334C18.6785 3.54169 18.9584 3.82151 18.9584 4.16669C18.9584 4.51186 18.6785 4.79169 18.3334 4.79169H8.33335C7.98818 4.79169 7.70835 4.51186 7.70835 4.16669Z" fill="#404D61"/>
<path fill-rule="evenodd" clip-rule="evenodd" d="M7.70835 10C7.70835 9.65484 7.98818 9.37502 8.33335 9.37502H18.3334C18.6785 9.37502 18.9584 9.65484 18.9584 10C18.9584 10.3452 18.6785 10.625 18.3334 10.625H8.33335C7.98818 10.625 7.70835 10.3452 7.70835 10Z" fill="#404D61"/>
<path fill-rule="evenodd" clip-rule="evenodd" d="M7.70835 15.8334C7.70835 15.4882 7.98818 15.2084 8.33335 15.2084H18.3334C18.6785 15.2084 18.9584 15.4882 18.9584 15.8334C18.9584 16.1785 18.6785 16.4584 18.3334 16.4584H8.33335C7.98818 16.4584 7.70835 16.1785 7.70835 15.8334Z" fill="#404D61"/>
<path fill-rule="evenodd" clip-rule="evenodd" d="M3.33335 8.95835C2.75806 8.95835 2.29169 9.42472 2.29169 10C2.29169 10.5753 2.75806 11.0417 3.33335 11.0417C3.90865 11.0417 4.37502 10.5753 4.37502 10C4.37502 9.42472 3.90865 8.95835 3.33335 8.95835ZM1.04169 10C1.04169 8.73437 2.0677 7.70835 3.33335 7.70835C4.59901 7.70835 5.62502 8.73437 5.62502 10C5.62502 11.2657 4.59901 12.2917 3.33335 12.2917C2.0677 12.2917 1.04169 11.2657 1.04169 10Z" fill="#404D61"/>
<path fill-rule="evenodd" clip-rule="evenodd" d="M3.33335 14.7917C2.75806 14.7917 2.29169 15.2581 2.29169 15.8334C2.29169 16.4087 2.75806 16.875 3.33335 16.875C3.90865 16.875 4.37502 16.4087 4.37502 15.8334C4.37502 15.2581 3.90865 14.7917 3.33335 14.7917ZM1.04169 15.8334C1.04169 14.5677 2.0677 13.5417 3.33335 13.5417C4.59901 13.5417 5.62502 14.5677 5.62502 15.8334C5.62502 17.099 4.59901 18.125 3.33335 18.125C2.0677 18.125 1.04169 17.099 1.04169 15.8334Z" fill="#404D61"/>
<path fill-rule="evenodd" clip-rule="evenodd" d="M5.85863 2.47475C6.10271 2.71882 6.10271 3.11455 5.85863 3.35863L3.35863 5.85863C3.11455 6.10271 2.71882 6.10271 2.47475 5.85863L1.22475 4.60863C0.980668 4.36455 0.980668 3.96882 1.22475 3.72475C1.46882 3.48067 1.86455 3.48067 2.10863 3.72475L2.91669 4.5328L4.97475 2.47475C5.21882 2.23067 5.61455 2.23067 5.85863 2.47475Z" fill="#404D61"/>
</g>
</g>
</svg>
