<svg width="16" height="16" viewBox="0 0 16 16" fill="none" xmlns="http://www.w3.org/2000/svg">
<g id="Icon/List">
<g id="Vector">
<path fill-rule="evenodd" clip-rule="evenodd" d="M3 0.833333C3.27614 0.833333 3.5 1.05719 3.5 1.33333V4.33333C3.5 4.60948 3.27614 4.83333 3 4.83333C2.72386 4.83333 2.5 4.60948 2.5 4.33333V1.33333C2.5 1.05719 2.72386 0.833333 3 0.833333Z" fill="#404D61"/>
<path fill-rule="evenodd" clip-rule="evenodd" d="M1.5 4.33333C1.5 4.05719 1.72386 3.83333 2 3.83333H4C4.27614 3.83333 4.5 4.05719 4.5 4.33333C4.5 4.60948 4.27614 4.83333 4 4.83333H2C1.72386 4.83333 1.5 4.60948 1.5 4.33333Z" fill="#404D61"/>
<path fill-rule="evenodd" clip-rule="evenodd" d="M1.5 9C1.5 8.72386 1.72386 8.5 2 8.5H4C4.27614 8.5 4.5 8.72386 4.5 9C4.5 9.27614 4.27614 9.5 4 9.5H2C1.72386 9.5 1.5 9.27614 1.5 9Z" fill="#404D61"/>
<path fill-rule="evenodd" clip-rule="evenodd" d="M2 6.66665L1.64645 6.3131C1.45118 6.50836 1.45118 6.82494 1.64645 7.0202C1.84111 7.21486 2.15634 7.21546 2.35174 7.022L2.35494 7.01895C2.35881 7.01529 2.36591 7.00868 2.37592 6.99981C2.39609 6.98193 2.42717 6.95565 2.46667 6.92603C2.54868 6.86452 2.65212 6.79986 2.75889 6.75982C2.86579 6.71973 2.94564 6.71534 3.00372 6.72986C3.05081 6.74163 3.14077 6.77923 3.25064 6.94403C3.29076 7.00422 3.31121 7.07849 3.23509 7.24024C3.151 7.41893 2.97749 7.62709 2.74547 7.83977C2.5201 8.04636 2.27105 8.22892 2.07443 8.36163C1.97704 8.42738 1.89457 8.47951 1.83716 8.51479C1.80849 8.53241 1.78619 8.54575 1.77154 8.55442L1.75548 8.56384L1.75208 8.56581C1.51257 8.7029 1.42893 9.00843 1.56588 9.24809C1.70288 9.48785 2.00831 9.57114 2.24807 9.43414L2.00762 9.01336C2.24807 9.43414 2.24807 9.43414 2.24807 9.43414L2.24926 9.43346L2.25129 9.43229L2.25786 9.42849L2.28055 9.41518C2.29974 9.40383 2.32692 9.38755 2.36076 9.36675C2.42835 9.32522 2.52296 9.26537 2.6339 9.19048C2.85395 9.04195 3.14656 8.82867 3.4212 8.57693C3.68918 8.33128 3.974 8.0186 4.13991 7.66604C4.31379 7.29654 4.3759 6.82914 4.0827 6.38934C3.85923 6.05412 3.57419 5.84171 3.24628 5.75972C2.92936 5.68048 2.63421 5.73858 2.40778 5.82349C2.18121 5.90845 1.99299 6.03129 1.86667 6.12603C1.80199 6.17453 1.74974 6.21856 1.71262 6.25146C1.69398 6.26798 1.67895 6.28188 1.66785 6.29238L1.65413 6.30553L1.64952 6.31004L1.64779 6.31176L1.64707 6.31247C1.64707 6.31247 1.64645 6.3131 2 6.66665Z" fill="#404D61"/>
<path fill-rule="evenodd" clip-rule="evenodd" d="M2.41582 11.7778L2.41372 11.7809L2.41435 11.78C2.41604 11.7776 2.41991 11.7723 2.42587 11.7646C2.43789 11.7491 2.45773 11.7248 2.48462 11.6962C2.54004 11.637 2.61631 11.569 2.70647 11.5175C2.79472 11.467 2.88692 11.4375 2.98444 11.4375C3.07819 11.4375 3.21217 11.4646 3.38937 11.5827C3.56636 11.7007 3.59882 11.7867 3.60621 11.8138C3.61474 11.8451 3.6151 11.8928 3.58215 11.9697C3.54812 12.0491 3.49084 12.129 3.43243 12.1952C3.40474 12.2266 3.38017 12.2511 3.36361 12.2668C3.35541 12.2746 3.34943 12.28 3.34633 12.2827L3.34428 12.2845L3.34547 12.2835L3.34633 12.2827L3.34428 12.2845C3.23173 12.3795 3.16672 12.5193 3.16672 12.6667C3.16672 12.814 3.23172 12.9538 3.34427 13.0488L3.34547 13.0498L3.34601 13.0503L3.34663 13.0508L3.66672 12.6667C3.98681 13.0508 3.98716 13.0505 3.98716 13.0505L3.98833 13.0495L3.99023 13.0479L3.99512 13.0437L4.00909 13.0316C4.02014 13.0218 4.03467 13.0086 4.05187 12.9923C4.08608 12.9598 4.13182 12.914 4.18226 12.8568C4.22752 12.8056 4.27971 12.7416 4.33173 12.6667C4.39217 12.7537 4.4524 12.8556 4.50129 12.9697C4.59334 13.1845 4.6562 13.4701 4.57098 13.7826C4.48462 14.0992 4.26708 14.3673 3.94407 14.5827C3.62127 14.7979 3.29692 14.8958 2.98443 14.8958C2.6757 14.8958 2.41373 14.8004 2.21032 14.6841C2.00881 14.569 1.85591 14.4287 1.75508 14.3211C1.70384 14.2665 1.66379 14.2179 1.63544 14.1813C1.62122 14.1629 1.60979 14.1474 1.60123 14.1355L1.5905 14.1202L1.58673 14.1147L1.58525 14.1125L1.5846 14.1115C1.5846 14.1115 1.58403 14.1107 2.00005 13.8333L2.41608 13.556C2.41529 13.5548 2.4145 13.5536 2.4137 13.5525L2.41434 13.5533L2.4151 13.5545L2.41556 13.5552C2.41556 13.5552 2.41608 13.556 2.00005 13.8333L1.58403 14.1107C1.43085 13.8809 1.49294 13.5705 1.7227 13.4173C1.95129 13.2649 2.25971 13.3256 2.4137 13.5525M3.34427 13.0488L3.34601 13.0503C3.34601 13.0503 3.34663 13.0508 3.66672 12.6667C3.98681 12.2826 3.98716 12.2828 3.98716 12.2828L3.98833 12.2838L3.99023 12.2854L3.99512 12.2896L4.00909 12.3018C4.02014 12.3116 4.03467 12.3247 4.05187 12.341C4.08608 12.3735 4.13182 12.4193 4.18226 12.4765C4.22752 12.5278 4.27971 12.5917 4.33173 12.6667C4.39217 12.5796 4.4524 12.4777 4.50129 12.3636C4.59334 12.1488 4.6562 11.8632 4.57098 11.5507C4.48462 11.2341 4.26708 10.966 3.94407 10.7506C3.62127 10.5354 3.29692 10.4375 2.98442 10.4375C2.67569 10.4375 2.41372 10.533 2.21031 10.6492C2.0088 10.7644 1.8559 10.9047 1.75507 11.0122C1.70384 11.0669 1.66379 11.1155 1.63544 11.1521C1.62122 11.1704 1.60979 11.186 1.60123 11.1979L1.5905 11.2132L1.58673 11.2187L1.58524 11.2209L1.5846 11.2218C1.5846 11.2218 1.58403 11.2227 2.00006 11.5L1.58403 11.2227C1.43085 11.4525 1.49295 11.7629 1.72271 11.9161C1.9513 12.0684 2.25973 12.0078 2.41372 11.7809L2.41435 11.78L2.41511 11.7788L2.41582 11.7778M3.34427 13.0488L3.34663 13.0508C3.34973 13.0535 3.35541 13.0587 3.36361 13.0665C3.38017 13.0822 3.40474 13.1067 3.43243 13.1381C3.49084 13.2043 3.54812 13.2842 3.58215 13.3636C3.6151 13.4405 3.61474 13.4882 3.60621 13.5195C3.59882 13.5466 3.56636 13.6326 3.38937 13.7506C3.21217 13.8688 3.07819 13.8958 2.98443 13.8958C2.88691 13.8958 2.79471 13.8663 2.70646 13.8159C2.6163 13.7644 2.54003 13.6963 2.48461 13.6372C2.45773 13.6085 2.43788 13.5842 2.42586 13.5687C2.4199 13.561 2.41434 13.5533 2.41434 13.5533L2.4137 13.5525M3.66672 12.6667L3.34633 12.2827C3.34633 12.2827 3.34663 12.2826 3.66672 12.6667Z" fill="#404D61"/>
<path fill-rule="evenodd" clip-rule="evenodd" d="M2.5 12.6667C2.5 12.3905 2.72386 12.1667 3 12.1667H3.66667C3.94281 12.1667 4.16667 12.3905 4.16667 12.6667C4.16667 12.9428 3.94281 13.1667 3.66667 13.1667H3C2.72386 13.1667 2.5 12.9428 2.5 12.6667Z" fill="#404D61"/>
<path fill-rule="evenodd" clip-rule="evenodd" d="M3.41608 1.05595C3.56925 1.28572 3.50717 1.59615 3.2774 1.74933L2.2774 2.416C2.04764 2.56917 1.7372 2.50709 1.58403 2.27732C1.43085 2.04756 1.49294 1.73712 1.7227 1.58395L2.7227 0.91728C2.95247 0.764104 3.2629 0.826191 3.41608 1.05595Z" fill="#404D61"/>
<path fill-rule="evenodd" clip-rule="evenodd" d="M6.5 8C6.5 7.72386 6.72386 7.5 7 7.5H14.3333C14.6095 7.5 14.8333 7.72386 14.8333 8C14.8333 8.27614 14.6095 8.5 14.3333 8.5H7C6.72386 8.5 6.5 8.27614 6.5 8Z" fill="#404D61"/>
<path fill-rule="evenodd" clip-rule="evenodd" d="M6.5 12.6667C6.5 12.3905 6.72386 12.1667 7 12.1667H14.3333C14.6095 12.1667 14.8333 12.3905 14.8333 12.6667C14.8333 12.9428 14.6095 13.1667 14.3333 13.1667H7C6.72386 13.1667 6.5 12.9428 6.5 12.6667Z" fill="#404D61"/>
<path fill-rule="evenodd" clip-rule="evenodd" d="M6.5 3.33333C6.5 3.05719 6.72386 2.83333 7 2.83333H14.3333C14.6095 2.83333 14.8333 3.05719 14.8333 3.33333C14.8333 3.60948 14.6095 3.83333 14.3333 3.83333H7C6.72386 3.83333 6.5 3.60948 6.5 3.33333Z" fill="#404D61"/>
</g>
</g>
</svg>
