<svg width="24" height="24" viewBox="0 0 24 24" fill="none" xmlns="http://www.w3.org/2000/svg">
<g id="Icon/Run">
<g id="Vector">
<path fill-rule="evenodd" clip-rule="evenodd" d="M9.35498 3.90476C9.35498 2.4423 10.5354 1.25 11.9997 1.25C13.4641 1.25 14.6445 2.44231 14.6445 3.90476C14.6445 5.36723 13.4641 6.5595 11.9997 6.5595C10.5354 6.5595 9.35498 5.36724 9.35498 3.90476ZM11.9997 2.75C11.3713 2.75 10.855 3.26328 10.855 3.90476C10.855 4.54623 11.3712 5.0595 11.9997 5.0595C12.6283 5.0595 13.1445 4.54624 13.1445 3.90476C13.1445 3.26327 12.6282 2.75 11.9997 2.75Z" fill="#1C1B1F"/>
<path fill-rule="evenodd" clip-rule="evenodd" d="M2.25 18.1906C2.25 16.7281 3.43035 15.5358 4.89473 15.5358C6.35911 15.5358 7.53945 16.7281 7.53945 18.1906C7.53945 19.653 6.3591 20.8453 4.89473 20.8453C3.43037 20.8453 2.25 19.653 2.25 18.1906ZM4.89473 17.0358C4.26626 17.0358 3.75 17.549 3.75 18.1906C3.75 18.832 4.26624 19.3453 4.89473 19.3453C5.5232 19.3453 6.03945 18.832 6.03945 18.1906C6.03945 17.549 5.52319 17.0358 4.89473 17.0358Z" fill="#1C1B1F"/>
<path fill-rule="evenodd" clip-rule="evenodd" d="M16.4604 18.1906C16.4604 16.7281 17.6408 15.5358 19.1052 15.5358C20.5696 15.5358 21.7499 16.7281 21.7499 18.1906C21.7499 19.653 20.5696 20.8453 19.1052 20.8453C17.6408 20.8453 16.4604 19.653 16.4604 18.1906ZM19.1052 17.0358C18.4767 17.0358 17.9604 17.549 17.9604 18.1906C17.9604 18.832 18.4767 19.3453 19.1052 19.3453C19.7337 19.3453 20.2499 18.832 20.2499 18.1906C20.2499 17.549 19.7337 17.0358 19.1052 17.0358Z" fill="#1C1B1F"/>
<path fill-rule="evenodd" clip-rule="evenodd" d="M15.9266 4.77411C16.1381 4.41797 16.5983 4.30074 16.9544 4.51226C19.8243 6.21683 21.7501 9.35905 21.7501 12.9524C21.7501 13.264 21.7356 13.5726 21.7072 13.8772C21.6687 14.2897 21.3032 14.5928 20.8908 14.5544C20.4783 14.5159 20.1752 14.1504 20.2136 13.738C20.2377 13.4796 20.2501 13.2176 20.2501 12.9524C20.2501 9.90735 18.6199 7.24607 16.1884 5.80194C15.8323 5.59042 15.715 5.13024 15.9266 4.77411Z" fill="#1C1B1F"/>
<path fill-rule="evenodd" clip-rule="evenodd" d="M7.8028 20.9937C7.96504 20.6126 8.40552 20.4352 8.78663 20.5974C9.77326 21.0174 10.8586 21.25 11.9998 21.25C13.141 21.25 14.2263 21.0174 15.2129 20.5974C15.594 20.4352 16.0345 20.6126 16.1967 20.9937C16.359 21.3748 16.1816 21.8153 15.8004 21.9776C14.6316 22.4752 13.3467 22.75 11.9998 22.75C10.6529 22.75 9.36798 22.4752 8.1991 21.9776C7.81799 21.8153 7.64055 21.3748 7.8028 20.9937Z" fill="#1C1B1F"/>
<path fill-rule="evenodd" clip-rule="evenodd" d="M8.07349 4.77411C8.28501 5.13024 8.16778 5.59042 7.81164 5.80194C5.38019 7.24607 3.75 9.90735 3.75 12.9524C3.75 13.2175 3.76234 13.4796 3.78644 13.7379C3.8249 14.1504 3.52175 14.5159 3.10933 14.5544C2.69691 14.5928 2.33139 14.2897 2.29292 13.8772C2.26451 13.5726 2.25 13.2641 2.25 12.9524C2.25 9.35905 4.17571 6.21683 7.04566 4.51226C7.40179 4.30074 7.86197 4.41797 8.07349 4.77411Z" fill="#1C1B1F"/>
</g>
</g>
</svg>
