<svg width="20" height="20" viewBox="0 0 20 20" fill="none" xmlns="http://www.w3.org/2000/svg">
<g id="Base/zoom-out">
<g id="Vector">
<path d="M1.04169 8.75002C1.04169 4.49284 4.49284 1.04169 8.75002 1.04169C13.0072 1.04169 16.4584 4.49284 16.4584 8.75002C16.4584 13.0072 13.0072 16.4584 8.75002 16.4584C4.49284 16.4584 1.04169 13.0072 1.04169 8.75002ZM8.75002 2.29169C5.1832 2.29169 2.29169 5.1832 2.29169 8.75002C2.29169 12.3168 5.1832 15.2084 8.75002 15.2084C12.3168 15.2084 15.2084 12.3168 15.2084 8.75002C15.2084 5.1832 12.3168 2.29169 8.75002 2.29169Z" fill="#757D8A"/>
<path d="M13.4005 13.4005C13.6446 13.1564 14.0403 13.1564 14.2844 13.4005L17.8199 16.936C18.064 17.1801 18.064 17.5758 17.8199 17.8199C17.5758 18.064 17.1801 18.064 16.936 17.8199L13.4005 14.2844C13.1564 14.0403 13.1564 13.6446 13.4005 13.4005Z" fill="#757D8A"/>
</g>
</g>
</svg>
